<svg width="300" height="148" viewBox="0 0 300 148" fill="none" xmlns="http://www.w3.org/2000/svg">
<g clip-path="url(#clip0_28_672)">
<path d="M26.5866 107.112L26.2695 107.255L26.5866 107.112Z" fill="#EC008C"/>
<path d="M25.6566 107.493L25.7136 107.472L25.6566 107.493Z" fill="#EC008C"/>
<path d="M137.038 132.053L136.45 132.31C136.65 132.228 136.842 132.139 137.038 132.053Z" fill="#EC008C"/>
<path d="M135.324 132.752L135.427 132.712L135.324 132.752Z" fill="#EC008C"/>
<path d="M126.102 141.969L126.024 141.922L117.696 125.978L102.067 102.607L87.5031 85.9747L83.1344 71.1161L100.264 45.2917L125.507 2.00513L109.525 0L84.4172 1.74158L63.9739 41.3135L55.9456 25.2867L45.127 6.90932L28.3256 0.587648L2.61198 0.893938L19.36 27.8296L33.3357 50.901L44.4072 71.5863L37.0595 88.0262L18.5796 111.447L8.60207 130.323L0 144.173L15.597 145.117H40.2665L63.5107 103.163L78.4556 127.619L88.1445 145.666L104.607 147.158H104.661L126.398 145.203V142.613L126.081 142.008L126.102 141.969ZM109.942 1.23584L122.097 2.76017L109.689 7.36519L109.942 1.23584ZM123.216 3.59712L110.466 25.4968L109.689 8.62241L123.216 3.59712ZM124.103 140.783L113.014 134.198L117.097 127.37L124.103 140.783ZM111.089 132.62L103.182 117.451L116.31 126.355L111.089 132.62ZM112.515 132.741L112.002 133.599L111.866 133.517L112.515 132.741ZM102.377 105.178L115.009 124.054L102.181 115.336L102.377 105.178ZM52.6672 93.9774L52.1826 95.2596L50.8285 94.5473L52.6672 93.9774ZM49.3568 93.7638L43.7729 90.8184L51.3131 93.169L49.3568 93.7638ZM52.8097 96.9193L53.273 97.165L54.1211 108.9L45.5867 115.973L52.8097 96.9193ZM53.7826 91.8868L46.1034 72.2986L68.6812 77.5126L53.7826 91.8868ZM81.0925 89.5754L81.652 84.2332L85.8034 86.4734L81.0925 89.5754ZM85.0301 88.3859L80.4369 95.8045L80.9322 91.0641L85.0301 88.3859ZM80.6649 82.3634L71.1364 77.2134L81.7625 71.8712L80.6649 82.3634ZM70.0638 76.4513L59.2132 60.1503L81.2814 70.7992L70.0638 76.4513ZM68.56 76.3017L46.2851 71.1553L57.4529 59.6196L68.56 76.3017ZM59.0778 98.9173L54.399 96.442L54.2672 94.6434L59.0778 98.9173ZM68.7738 79.0654L64.6545 94.8536L54.4952 92.82L68.7738 79.0654ZM70.021 78.9337L76.3496 92.6882L71.1079 96.1607L65.8091 95.0922L70.021 78.9337ZM71.3502 97.3929L76.4708 98.4186L66.4006 100.655L71.3502 97.3929ZM72.7435 96.4741L76.8485 93.7709L78.6302 97.6529L72.7435 96.4741ZM71.1364 78.5454L80.5331 83.617L79.8204 90.4017L77.326 92.0364L71.1364 78.5454ZM79.881 111.507L80.33 117.843L79.7634 117.28L79.881 111.507ZM80.2373 99.6474L92.8269 109.52L81.5344 118.242L80.2373 99.6474ZM82.1259 125.19L79.9879 126.312L81.1068 121.657L82.1259 125.19ZM81.791 119.827L97.9297 116.914L83.17 124.653L81.791 119.827ZM83.3054 118.36L93.7818 110.268L100.196 115.307L83.3054 118.36ZM94.7404 109.527L101.201 104.512L101.005 114.467L94.7404 109.527ZM93.7854 108.779L81.9905 99.5191L100.784 103.366L93.7854 108.779ZM100.018 102.012L80.4725 98.0162L87.104 87.2747L100.018 102.012ZM86.0884 85.2731L81.8123 82.9617L82.7602 73.9084L86.0884 85.2731ZM84.3816 67.1379L89.3953 51.6062L98.0722 46.5026L84.3816 67.1379ZM89.2242 50.3454L84.5918 37.0646L98.4321 44.8999L89.2242 50.3454ZM78.9652 36.8117L74.0156 30.1303L82.2115 35.6186L78.9652 36.8117ZM83.1807 36.5482L87.1004 47.7812L79.7099 37.8089L83.1807 36.5482ZM87.3036 50.0356L66.0443 42.6704L78.5411 38.1936L87.3036 50.0356ZM84.4528 34.8529L91.8077 13.8899L108.62 27.1778L84.4528 34.8529ZM99.5261 44.1983L84.9517 35.9285L108.773 28.3425L99.5261 44.1983ZM92.8055 13.1776L108.513 8.98212L109.304 26.2162L92.8055 13.1776ZM94.6834 11.4609L101.24 6.97343L106.667 8.26269L94.6834 11.4609ZM108.509 7.47916L102.548 6.05456L108.741 1.82349L108.509 7.47916ZM107.394 1.32488L101.005 5.69841L88.2051 2.65688L107.394 1.32488ZM99.6971 6.59591L91.6937 12.0735L86.1668 3.37987L99.6971 6.59591ZM84.8412 3.48315L90.7387 12.7644L72.968 26.4727L84.8412 3.48315ZM90.3147 14.5737L83.2163 34.8743L72.9216 27.9899L90.3147 14.5737ZM71.6851 28.955L77.7928 37.2106L65.0643 41.7693L71.6851 28.955ZM64.2982 43.315L88.1517 51.5777L82.2257 69.9408L58.2867 58.3873L64.2982 43.315ZM57.4422 57.3402L51.3844 46.7626L62.9049 43.689L57.4422 57.3402ZM49.6027 46.0218L35.5165 49.7614L45.7435 39.3226L49.6027 46.0218ZM47.062 39.2549L61.8893 42.7381L50.7608 45.7048L47.062 39.2549ZM50.2085 47.0902L56.2841 57.6679L35.8693 50.901L50.2085 47.0902ZM62.8978 41.7836L46.8874 38.0155L55.3398 26.6864L62.8978 41.7836ZM54.734 25.536L46.392 36.6835L45.4192 9.73003L54.734 25.536ZM28.5892 1.94102L42.7609 7.26547L25.4499 11.493L28.5892 1.94102ZM27.4062 1.78075L24.1991 11.5143L6.22171 2.0265L27.4062 1.78075ZM5.18476 2.80647L23.8357 12.6398L19.499 25.8352L5.18476 2.80647ZM25.0187 12.8214L42.5079 8.54761L20.7711 25.7746L25.0187 12.8214ZM44.2077 8.6972L45.2553 37.4528L21.0241 27.0674L44.2077 8.6972ZM21.0455 28.3567L44.8527 38.5711L33.9629 49.6723L21.0455 28.3567ZM35.2065 51.9089L56.4658 58.9394L45.1983 70.5819L35.2065 51.9089ZM45.0878 72.9396L52.7171 92.3819L38.3886 87.8873L45.0878 72.9396ZM37.8042 88.9664L47.7818 94.241L29.1273 99.975L37.8042 88.9664ZM49.2392 95.021L51.7621 96.3565L43.9761 116.903L28.5999 101.364L49.2392 95.021ZM41.4781 131.195L36.5784 127.79L43.3026 119.927L41.4781 131.195ZM42.3369 133.222L43.9048 134.311L42.0839 134.782L42.3369 133.222ZM18.3017 134.953L21.0811 120.436L24.8477 138.511L18.3017 134.953ZM23.8927 139.33L17.2576 140.398L18.0701 136.153L23.8927 139.33ZM22.0041 119.1L34.8323 128.004L26.0129 138.34L22.0041 119.1ZM21.8401 117.241L23.3083 113.47L39.0087 117.352L21.8401 117.241ZM23.0873 118.424L42.9462 118.552L35.6127 127.121L23.0873 118.424ZM42.4046 116.978L23.7394 112.366L27.7198 102.144L42.4046 116.978ZM25.5247 104.537L22.5885 112.081L20.0656 111.475L25.5247 104.537ZM22.1573 113.185L21.0883 115.923L19.9551 112.64L22.1573 113.185ZM18.9288 113.274L20.4362 117.604V117.644L11.5811 127.167L18.9288 113.274ZM19.9979 119.823L17.2077 134.365L10.0809 130.494L19.9979 119.823ZM9.01899 131.85L13.32 141.036L2.19506 142.859L9.01899 131.85ZM6.31436 143.379L13.8367 142.154L14.6456 143.885L6.31436 143.379ZM15.5543 143.055L15.0412 141.958L15.7895 141.837L15.5543 143.055ZM14.5245 140.854L10.3802 131.986L16.9903 135.576L16.0353 140.608L14.5245 140.854ZM17.0189 141.634L21.8188 140.854L16.691 143.347L17.0189 141.634ZM18.1449 143.942L25.7278 140.259L36.4181 143.942H18.1449ZM39.447 143.746L27.7162 139.711L40.6443 136.367L39.447 143.746ZM27.3314 138.6L35.8016 128.688L41.2714 132.488L40.8474 135.109L27.3314 138.6ZM41.0256 141.303L41.8808 136.05L44.2896 135.426L41.0256 141.303ZM42.5364 131.932L43.9618 123.185L44.6317 133.378L42.5364 131.932ZM45.7435 132.766L44.8028 118.495L54.1995 117.501L45.7435 132.766ZM45.9359 117.195L54.203 110.339L54.6342 116.272L45.9359 117.195ZM55.7032 114.784L55.3148 109.417L61.5294 104.267L55.7032 114.784ZM55.2329 107.978L54.4988 97.8132L62.431 102.012L55.2329 107.978ZM63.0724 100.894L55.5892 94.2303L64.3623 95.9897L63.0724 100.894ZM65.5026 96.2212L69.7074 97.0617L64.3623 100.584L65.5026 96.2212ZM78.4164 125.319L66.3828 105.627L78.5696 117.758L78.4164 125.319ZM78.6053 116.134L64.651 102.244L78.9509 99.0704L78.6053 116.134ZM77.832 93.1156L79.6565 91.9118L79.2182 96.1215L77.832 93.1156ZM79.7242 118.904L80.3727 119.549L79.66 122.555L79.7242 118.904ZM79.8275 127.705L82.4359 126.341L86.3842 139.921L79.8275 127.705ZM83.4978 125.785L101.108 116.565L103.285 136.865L88.8251 144.113L83.4978 125.785ZM90.3004 144.69L103.417 138.112L104.258 145.947L90.3004 144.69ZM102.523 118.737L110.17 133.414L104.408 136.302L102.523 118.737ZM104.54 137.549L110.954 134.344L111.403 134.611L105.324 144.775L104.54 137.549ZM106.029 145.869L112.247 135.508L124.196 144.241L106.029 145.869ZM125.215 143.529L119.952 139.693L125.136 142.77L125.215 142.92V143.529Z" fill="#231F20"/>
<path d="M249.849 93.9276L244.176 79.7528L233.696 71.4011L247.319 57.3581L250.608 38.3717L240.024 13.6406L226.597 7.83534L202.081 0.466581L185.654 0.44165L161.145 7.83534L147.707 13.3557L137.124 38.3859L140.398 57.034L140.43 57.2014L153.772 71.7537L143.573 79.7493L137.9 93.9312L137.01 118.776L137.124 118.94V118.965H137.159L150.64 138.247L150.747 138.404L173.681 146.389L173.766 146.421L193.785 146.923L213.741 146.264L236.853 138.468L237.035 138.407L251.039 118.598L249.852 94.0238L249.849 93.9276ZM247.956 92.3605L242.444 88.304L243.844 82.0892L247.956 92.3605ZM167.174 129.283L175.466 130.223L173.713 143.81L167.174 129.283ZM145.793 85.1556L147.614 82.6163L153.173 85.4762L146.656 88.9771L145.793 85.1556ZM146.506 93.575L140.755 93.4967L145.865 90.7543L146.506 93.575ZM146.67 80.7999L147.507 80.7643L147.262 81.1204L146.67 80.7999ZM148.919 48.0697L172.629 48.2691L170.591 68.7371L148.919 48.0697ZM168.279 68.1387L152.079 61.1083L148.594 49.4088L168.279 68.1387ZM170.388 31.3733L161.423 37.3745L149.884 28.0789L170.388 31.3733ZM148.822 26.7113L154.381 19.0256L169.597 30.0663L148.822 26.7113ZM235.67 87.4813L236.5 93.8706L217.97 94.0309L233.211 86.1956L235.67 87.4813ZM235.595 80.5292L241.15 80.7572L236.233 83.2929L235.595 80.5292ZM194.01 127.481L196.732 130.127H190.61L194.01 127.481ZM189.021 129.874L180.508 117.134L193.076 126.704L189.021 129.874ZM179.874 115.176L193.736 115.567L207.832 115.176L194.031 125.96L179.874 115.176ZM193.736 114.392L178.527 113.968L172.954 95.021L190.803 89.1979H196.504L214.76 95.0246L209.172 113.968L193.736 114.392ZM167.48 78.1395L170.687 73.9689L170.83 76.9214L167.48 78.1395ZM170.876 78.1395L170.997 80.6717L167.48 79.386L170.876 78.1395ZM171.058 81.9503L171.503 91.2636L166.871 80.3974L171.058 81.9503ZM175.616 35.8644L172.989 36.8865L172.658 32.6697L175.616 35.8644ZM173.538 31.8791L178.399 32.659L176.588 35.1735L173.538 31.8791ZM175.747 37.0753L173.609 44.4476L173.089 38.1081L175.747 37.0753ZM173.574 50.5734L177.493 62.8285L172.355 69.8055L171.685 69.574L173.574 50.5734ZM206.678 30.8605L209.265 34.657L205.028 32.6733L206.678 30.8605ZM204.54 31.4517L204.265 27.3346L205.987 29.8632L204.54 31.4517ZM207.48 29.9665L210.598 26.5332L214.981 30.3084L210.997 35.1236L207.48 29.9665ZM215.063 32.0322L214.888 34.3009L212.604 35.0132L215.063 32.0322ZM214.792 35.5617L214.118 44.298L211.695 36.5233L214.792 35.5617ZM214.161 48.5968L215.675 68.1174L206.108 57.0981L214.161 48.5968ZM220.055 33.9305L225.453 37.7271L215.18 46.0788L216.021 35.1877L220.055 33.9305ZM216.135 33.9305L216.335 31.3057L218.861 33.0864L216.135 33.9305ZM211.741 73.4632L207.747 71.3726L214.728 70.614L211.741 73.4632ZM215.761 71.2657L215.526 75.5039L212.8 74.0793L215.761 71.2657ZM210.843 74.3144L208.68 76.3694L206.97 72.2986L210.843 74.3144ZM210.184 83.1327L198.781 87.378L208.239 78.403L210.184 83.1327ZM210.598 84.2296L214.482 93.6997L198.703 88.6601L210.598 84.2296ZM211.699 83.8201L215.198 82.5165L214.781 91.3277L211.699 83.8201ZM211.253 82.7302L209.115 77.5447L211.895 74.9056L215.458 76.7896L215.248 81.2415L211.253 82.7302ZM215.921 92.0258L216.395 82.0714L220.55 80.5221L215.921 92.0258ZM216.456 80.7928L216.616 77.3987L220.315 79.3575L216.456 80.7928ZM221.94 80.2158L231.939 85.5082L216.638 93.3969L221.94 80.2158ZM221.747 78.7912L216.677 76.1094L216.919 70.9737L224.662 76.6721L221.747 78.7912ZM216.873 68.5946L215.401 49.5797L224.531 61.55L216.873 68.5946ZM215.201 69.3817L206.382 70.3362L205.965 58.7221L215.201 69.3817ZM207.718 77.2455L196.964 87.4563L195.332 83.8948L205.559 71.9887L207.718 77.2455ZM179.742 79.0904L188.052 87.0076L177.889 83.2467L179.742 79.0904ZM176.784 82.8371L172.152 81.1275L171.992 77.7263L176.553 76.0631L178.826 78.2285L176.784 82.8371ZM179.35 77.0924L177.814 75.6108L180.458 74.6456L179.35 77.0924ZM179.788 73.6341L176.849 74.7026L173.406 71.426L179.788 73.6341ZM173.538 70.2222L177.946 64.214L180.654 72.6797L173.538 70.2222ZM175.626 75.1478L171.956 76.4869L171.756 72.5265L172.22 71.9211L175.626 75.1478ZM172.237 82.3919L176.318 83.902L172.701 92.008L172.237 82.3919ZM177.422 84.308L188.961 88.5818L173.235 93.6854L177.422 84.308ZM182.536 74.0936L189.242 73.3813L193.112 81.8363L190.578 87.2569L182.536 74.0936ZM183.751 72.7794L187.703 70.0014L188.729 72.2416L183.751 72.7794ZM193.764 80.4224L190.475 73.2317L197.47 72.4731L193.764 80.4224ZM198.838 72.3378L204.219 71.7537L194.808 82.7089L194.409 81.8363L198.838 72.3378ZM193.96 83.6954L193.044 84.7638L193.757 83.2431L193.96 83.6954ZM194.498 84.8707L195.956 88.0511L191.783 88.0333L194.498 84.8707ZM199.412 71.0984L204.8 59.5377L205.21 70.468L199.412 71.0984ZM198.047 71.2444L189.958 72.1205L188.683 69.3283L203.945 58.5975L198.047 71.2444ZM188.184 68.2385L183.348 57.6679H203.221L188.184 68.2385ZM187.207 68.9258L182.219 72.4446L182.906 59.495L187.207 68.9258ZM188.03 85.3515L180.262 77.9507L181.634 74.8771L188.03 85.3515ZM181.135 70.3932L178.787 63.0387L181.734 59.0142L181.135 70.3932ZM178.345 61.6639L174.575 49.8611L181.666 57.1194L178.345 61.6639ZM169.298 95.0566L150.732 101.642L155.525 94.875L169.298 95.0566ZM156.348 93.7068L159.758 88.8881L169.437 93.8742L156.348 93.7068ZM169.419 96.2604L156.348 105.086L150.836 102.853L169.419 96.2604ZM155.165 105.876L152.906 107.401L150.732 104.071L155.165 105.876ZM156.263 106.322L164.195 109.527L159.997 118.11L153.465 108.223L156.263 106.322ZM157.435 105.527L170.506 96.702L164.726 108.483L157.435 105.527ZM171.984 95.9114L177.166 113.527L165.627 108.843L171.984 95.9114ZM215.586 96.3744L217.849 110.528L210.516 113.53L215.586 96.3744ZM216.463 95.6158L236.61 102.853L218.793 110.147L216.463 95.6158ZM234.472 85.5225L235.356 85.0666L235.481 86.0567L234.472 85.5225ZM234.718 84.0729L233.207 84.8529L224.156 80.0591L229.569 80.2835L234.718 84.0729ZM231.668 80.3689L234.38 80.4794L234.904 82.7516L231.668 80.3689ZM223.633 78.866L225.649 77.3987L227.88 79.0369L223.633 78.866ZM218.437 70.6389L231.215 71.8926L225.642 75.942L218.437 70.6389ZM217.724 69.3888L225.208 62.4866L231.504 70.7422L217.724 69.3888ZM215.697 48.059L238.945 48.262L225.375 60.7522L215.697 48.059ZM216.01 46.8872L226.416 38.4287L238.749 47.0867L216.01 46.8872ZM226.344 36.9578L221.452 33.4782L236.354 28.8482L226.344 36.9578ZM220.24 32.6377L216.819 30.2336L233.243 18.876L239.066 26.6686L238.806 26.8823L220.24 32.6377ZM215.608 29.2827L211.399 25.6642L224.099 11.6996L215.608 29.2827ZM210.508 24.8949L204.151 19.4174L210.922 14.8194L224.245 9.79416L210.508 24.8949ZM209.717 25.764L206.803 28.9693L204.112 25.0232L203.827 20.6817L209.717 25.764ZM203.92 33.4568L210.466 36.5197L213.808 47.2398L205.046 56.4997H182.682L173.919 47.5319L177.126 36.5197L183.516 33.4568H203.92ZM182.183 32.0785L180.458 31.8043L181.107 30.8996L182.183 32.0785ZM181.809 29.9416L183.138 28.1003L182.924 31.1632L181.809 29.9416ZM181.452 33.147L178.47 34.5716L179.699 32.8656L181.452 33.147ZM185.194 32.2779L200.552 21.8605L202.975 25.422L203.435 32.2851L185.194 32.2779ZM201.525 21.2017L202.64 20.4466L202.819 23.0999L201.525 21.2017ZM200.866 20.2329L197.377 15.1151L202.224 19.3034L200.866 20.2329ZM199.893 20.8918L184.064 31.6191L184.439 26.2768L194.259 12.6505L199.893 20.8918ZM183.291 25.8601L180.996 29.0405L176.032 23.5701L181.777 11.0407L184.31 11.3042L183.291 25.8601ZM180.309 30.0128L179.165 31.5941L172.804 30.572L175.491 24.7276L180.309 30.0128ZM171.935 29.6317L163.528 11.6105L174.607 23.7873L171.935 29.6317ZM172.562 46.3495L165.834 40.9324L171.945 38.5533L172.562 46.3495ZM171.849 37.3317L164.783 40.0812L162.381 38.1473L171.436 32.0928L171.849 37.3317ZM163.521 40.5727L152.179 44.989L161.355 38.8204L163.521 40.5727ZM164.59 41.4239L171.621 47.0867L150.501 46.9086L164.59 41.4239ZM170.591 72.1526L165.663 78.5633L156.398 72.2024L170.523 70.6282L170.591 72.1526ZM171.151 93.4397L160.46 87.9229L165.656 80.5791L171.151 93.4397ZM159.409 87.3851L155.689 85.4762L163.849 81.0919L159.409 87.3851ZM154.445 84.8208L148.316 81.6582L148.997 80.7073L163.251 80.0876L154.445 84.8208ZM154.445 86.1457L158.721 88.3539L154.937 93.6961L147.711 93.6L146.937 90.1845L154.445 86.1457ZM154.11 94.8607L149.478 101.407L147.978 94.7752L154.11 94.8607ZM151.972 108.067L140.042 116.105L149.164 103.836L151.972 108.067ZM152.514 108.886L159.416 119.335L156.79 124.653L138.617 118.242L152.514 108.886ZM160.047 120.283L164.793 127.466L157.734 124.973L160.047 120.283ZM164.883 128.745L152.054 136.548L157.221 126.042L164.883 128.745ZM160.642 119.065L165.143 109.915L177.102 114.777L166.265 127.627L160.642 119.065ZM167.413 128.139L177.244 116.461L175.616 129.08L167.413 128.139ZM178.498 116.169L187.763 130.059L176.809 129.187L178.498 116.169ZM189.028 131.484L192.485 133.574L178.053 142.503L189.028 131.484ZM191.034 131.323H196.141L193.607 132.89L191.034 131.323ZM197.164 132.064L196.365 134.557L194.705 133.556L197.164 132.064ZM194.976 126.768L206.86 117.476L198.126 129.824L194.976 126.768ZM198.446 131.776L209.425 142.46L197.367 135.159L198.446 131.776ZM209.226 116.105L210.89 129.083L199.384 130.02L209.226 116.105ZM210.462 116.49L220.151 128.332L212.062 128.991L210.462 116.49ZM210.576 114.777L218.059 111.717L220.482 126.872L210.576 114.777ZM221.555 127.406L218.986 111.333L237.206 103.878L221.555 127.406ZM218.793 95.1991L236.657 95.0459L237.551 101.941L218.793 95.1991ZM236.589 85.4477L241.132 88.7919L241.083 89.0163L236.757 86.7262L236.589 85.4477ZM236.945 88.1544L240.819 90.2058L239.999 93.8386L237.69 93.8599L236.945 88.1544ZM239.736 95.0174L238.535 100.36L237.822 95.0459L239.736 95.0174ZM240.94 95.0174L247.433 94.9604L239.593 101.061L240.94 95.0174ZM241.207 93.8421L241.895 90.7864L247.568 93.7851L241.207 93.8421ZM242.162 89.5968V89.5648L242.337 89.693L242.162 89.5968ZM241.418 87.5525L236.945 84.2617L242.839 81.2023L241.418 87.5525ZM242.13 79.6353L235.328 79.3539L233.881 73.0607L242.13 79.6353ZM234.113 79.3041L229.983 79.1367L226.633 76.6721L232.509 72.3983L234.113 79.3041ZM232.612 70.2187L226.116 61.6995L239.222 49.6403L232.612 70.2187ZM246.698 54.0993L244.528 44.5758L249.118 40.1311L246.698 54.0993ZM243.541 45.5339L245.501 54.142L241.225 47.7776L243.541 45.5339ZM241.015 46.3459L240.659 32.8692L243.235 44.1947L241.015 46.3459ZM244.222 43.2367L240.979 28.9907L249.175 38.4251L244.222 43.2367ZM247.992 35.2589L240.634 26.7968L240.495 26.6045L240.245 17.1415L247.992 35.2589ZM240.648 49.0384L246.018 57.0268L234.152 69.2606L240.648 49.0384ZM239.839 46.4314L227.367 37.6736L239.336 27.9472L239.839 46.4314ZM239.276 24.9875L234.209 18.1886L239.009 14.8657L239.276 24.9875ZM238.079 14.0929L233.507 17.2626L227.827 9.63746L238.079 14.0929ZM232.541 17.918L217.293 28.4921L226.383 9.67307L232.541 17.918ZM224.534 8.43011L210.448 13.7474L210.384 13.7724L203.663 18.3275L202.555 1.8342L224.534 8.43011ZM202.441 17.9607L195.022 11.55L201.418 2.68184L202.441 17.9607ZM200.766 1.61695L194.088 10.8769L186.605 1.61695H200.766ZM186.081 2.84923L192.666 10.9837L185.561 10.25L186.081 2.84923ZM193.137 12.216L184.585 24.0509L185.468 11.4253L193.137 12.216ZM184.407 10.1325L182.308 9.91525L184.802 4.49108L184.407 10.1325ZM184.67 1.96597L181.075 9.80129L164.416 8.05971L184.67 1.96597ZM180.544 10.9125L175.156 22.6263L162.809 9.09255L180.544 10.9125ZM161.259 9.51993L170.456 29.2435L155.065 18.0818L161.259 9.51993ZM159.684 9.69088L154.114 17.3909L149.353 13.9362L159.684 9.69088ZM148.719 14.9263L153.43 18.3418L148.494 25.1656L148.719 14.9263ZM148.423 28.4137L160.396 38.0583L148.031 46.3495L148.423 28.4137ZM147.5 16.8495L147.283 26.8217L139.657 35.3907L147.5 16.8495ZM144.461 43.9953L147.169 32.4097L146.87 46.1607L144.461 43.9953ZM146.649 47.5568L142.063 54.2702L144.154 45.3024L146.649 47.5568ZM146.691 29.2578L143.466 43.0942L138.431 38.5391L146.691 29.2578ZM138.656 40.3234L143.16 44.4013L140.993 53.6968L138.656 40.3234ZM147.208 48.8176L150.657 60.4958L141.845 56.6743L147.208 48.8176ZM143.249 58.569L151.089 61.9702L153.326 69.5562L143.249 58.569ZM152.514 62.5792L168.817 69.6524L155.055 71.1874L152.514 62.5792ZM154.823 72.5515L164.006 78.8553L149.866 79.4679L154.823 72.5515ZM151.762 74.8023L148.377 79.532L145.576 79.6531L151.762 74.8023ZM146.57 82.0535L145.458 83.6064L144.895 81.2023L146.57 82.0535ZM145.597 89.5327L140.801 92.1112L144.888 86.4128L145.597 89.5327ZM143.905 82.0535L144.543 84.8707L140.544 90.4516L143.905 82.0535ZM146.756 94.7218L148.238 101.279L140.138 94.6648L146.756 94.7218ZM139.009 95.224L148.377 102.928L138.26 116.536L139.009 95.224ZM156.256 125.721L150.893 136.626L139.034 119.656L156.256 125.721ZM165.959 129.457L172.915 144.914L152.329 137.745L165.959 129.457ZM176.649 130.351L187.614 131.224L174.889 143.995L176.649 130.351ZM192.756 145.748L175.698 145.309L193.582 134.244L195.966 135.686L192.756 145.748ZM193.981 145.769L197.014 136.32L211.667 145.171L193.981 145.769ZM199.53 131.202L211.054 130.266L212.835 144.113L199.53 131.202ZM212.226 130.169L220.386 129.503L213.944 143.589L212.226 130.169ZM214.72 144.715L221.591 129.678L235.256 137.788L214.72 144.715ZM236.489 137.154L222.702 128.962L248.901 119.592L236.489 137.154ZM222.784 127.68L238.585 103.932L249.485 118.128L222.784 127.68ZM239.198 102.806L248.744 95.4128L249.763 116.565L239.198 102.806Z" fill="#231F20"/>
<path d="M289.353 141.652L289.887 142.699L298.824 138.108V146.442H285.312V132.933H299.412V131.758H284.136V147.614H300V136.185L289.353 141.652Z" fill="#231F20"/>
<path d="M267.968 131.776L262.566 147.977H263.803L265.585 142.61L274.568 138.09L277.868 147.977H279.104L273.723 131.776H267.968ZM266.123 141.036L268.817 132.958H272.865L274.204 136.968L266.123 141.036Z" fill="#231F20"/>
</g>
<defs>
<clipPath id="clip0_28_672">
<rect width="300" height="147.959" fill="white"/>
</clipPath>
</defs>
</svg>
